<?xml version="1.0" encoding="UTF-8" standalone="no"?><svg xmlns="http://www.w3.org/2000/svg" xmlns:xlink="http://www.w3.org/1999/xlink" contentScriptType="application/ecmascript" contentStyleType="text/css" height="769px" preserveAspectRatio="none" style="width:1451px;height:769px;" version="1.1" viewBox="0 0 1451 769" width="1451px" zoomAndPan="magnify"><defs><filter height="300%" id="f64c5dudpwiqm" width="300%" x="-1" y="-1"><feGaussianBlur result="blurOut" stdDeviation="2.0"/><feColorMatrix in="blurOut" result="blurOut2" type="matrix" values="0 0 0 0 0 0 0 0 0 0 0 0 0 0 0 0 0 0 .4 0"/><feOffset dx="4.0" dy="4.0" in="blurOut2" result="blurOut3"/><feBlend in="SourceGraphic" in2="blurOut3" mode="normal"/></filter></defs><g><!--MD5=[a8ec54936d81096ca99bd23e00162884]
class DATA: Raw CSV--><rect fill="#FEFECE" filter="url(#f64c5dudpwiqm)" height="48" id="DATA: Raw CSV" style="stroke: #A80036; stroke-width: 1.5;" width="120" x="7" y="246"/><ellipse cx="22" cy="262" fill="#ADD1B2" rx="11" ry="11" style="stroke: #A80036; stroke-width: 1.0;"/><path d="M24.7656,257.875 Q24.9219,257.6563 25.1094,257.5469 Q25.2969,257.4375 25.5156,257.4375 Q25.8906,257.4375 26.125,257.6953 Q26.3594,257.9531 26.3594,258.5625 L26.3594,260.0156 Q26.3594,260.625 26.125,260.8906 Q25.8906,261.1563 25.5156,261.1563 Q25.1719,261.1563 24.9688,260.9531 Q24.7656,260.7656 24.6563,260.25 Q24.6094,259.8906 24.4219,259.7031 Q24.0938,259.3281 23.4844,259.1094 Q22.875,258.8906 22.25,258.8906 Q21.4844,258.8906 20.8516,259.2188 Q20.2188,259.5469 19.7266,260.2969 Q19.2344,261.0469 19.2344,262.0781 L19.2344,263.1719 Q19.2344,264.4063 20.125,265.2266 Q21.0156,266.0469 22.6094,266.0469 Q23.5469,266.0469 24.2031,265.7969 Q24.5938,265.6406 25.0156,265.2031 Q25.2813,264.9375 25.4297,264.8594 Q25.5781,264.7813 25.7813,264.7813 Q26.1094,264.7813 26.3672,265.0391 Q26.625,265.2969 26.625,265.6406 Q26.625,265.9844 26.2813,266.3906 Q25.7813,266.9688 24.9844,267.2969 Q23.9063,267.75 22.6094,267.75 Q21.0938,267.75 19.8906,267.125 Q18.9063,266.625 18.2188,265.5547 Q17.5313,264.4844 17.5313,263.2031 L17.5313,262.0469 Q17.5313,260.7188 18.1484,259.5703 Q18.7656,258.4219 19.8594,257.8047 Q20.9531,257.1875 22.1875,257.1875 Q22.9219,257.1875 23.5703,257.3516 Q24.2188,257.5156 24.7656,257.875 Z "/><text fill="#000000" font-family="sans-serif" font-size="12" lengthAdjust="spacingAndGlyphs" textLength="88" x="36" y="266.9102">DATA: Raw CSV</text><line style="stroke: #A80036; stroke-width: 1.5;" x1="8" x2="126" y1="278" y2="278"/><line style="stroke: #A80036; stroke-width: 1.5;" x1="8" x2="126" y1="286" y2="286"/><!--MD5=[c89c8655ab15e8b371b65d3ab9c0c2ab]
class DATA: Raw MAT--><rect fill="#FEFECE" filter="url(#f64c5dudpwiqm)" height="48" id="DATA: Raw MAT" style="stroke: #A80036; stroke-width: 1.5;" width="119" x="162.5" y="246"/><ellipse cx="177.5" cy="262" fill="#ADD1B2" rx="11" ry="11" style="stroke: #A80036; stroke-width: 1.0;"/><path d="M180.2656,257.875 Q180.4219,257.6563 180.6094,257.5469 Q180.7969,257.4375 181.0156,257.4375 Q181.3906,257.4375 181.625,257.6953 Q181.8594,257.9531 181.8594,258.5625 L181.8594,260.0156 Q181.8594,260.625 181.625,260.8906 Q181.3906,261.1563 181.0156,261.1563 Q180.6719,261.1563 180.4688,260.9531 Q180.2656,260.7656 180.1563,260.25 Q180.1094,259.8906 179.9219,259.7031 Q179.5938,259.3281 178.9844,259.1094 Q178.375,258.8906 177.75,258.8906 Q176.9844,258.8906 176.3516,259.2188 Q175.7188,259.5469 175.2266,260.2969 Q174.7344,261.0469 174.7344,262.0781 L174.7344,263.1719 Q174.7344,264.4063 175.625,265.2266 Q176.5156,266.0469 178.1094,266.0469 Q179.0469,266.0469 179.7031,265.7969 Q180.0938,265.6406 180.5156,265.2031 Q180.7813,264.9375 180.9297,264.8594 Q181.0781,264.7813 181.2813,264.7813 Q181.6094,264.7813 181.8672,265.0391 Q182.125,265.2969 182.125,265.6406 Q182.125,265.9844 181.7813,266.3906 Q181.2813,266.9688 180.4844,267.2969 Q179.4063,267.75 178.1094,267.75 Q176.5938,267.75 175.3906,267.125 Q174.4063,266.625 173.7188,265.5547 Q173.0313,264.4844 173.0313,263.2031 L173.0313,262.0469 Q173.0313,260.7188 173.6484,259.5703 Q174.2656,258.4219 175.3594,257.8047 Q176.4531,257.1875 177.6875,257.1875 Q178.4219,257.1875 179.0703,257.3516 Q179.7188,257.5156 180.2656,257.875 Z "/><text fill="#000000" font-family="sans-serif" font-size="12" lengthAdjust="spacingAndGlyphs" textLength="87" x="191.5" y="266.9102">DATA: Raw MAT</text><line style="stroke: #A80036; stroke-width: 1.5;" x1="163.5" x2="280.5" y1="278" y2="278"/><line style="stroke: #A80036; stroke-width: 1.5;" x1="163.5" x2="280.5" y1="286" y2="286"/><!--MD5=[a38a59b625b66090b24abd7e0ad26c68]
class DATA: Raw clean--><rect fill="#FEFECE" filter="url(#f64c5dudpwiqm)" height="48" id="DATA: Raw clean" style="stroke: #A80036; stroke-width: 1.5;" width="126" x="388" y="246"/><ellipse cx="403" cy="262" fill="#ADD1B2" rx="11" ry="11" style="stroke: #A80036; stroke-width: 1.0;"/><path d="M405.7656,257.875 Q405.9219,257.6563 406.1094,257.5469 Q406.2969,257.4375 406.5156,257.4375 Q406.8906,257.4375 407.125,257.6953 Q407.3594,257.9531 407.3594,258.5625 L407.3594,260.0156 Q407.3594,260.625 407.125,260.8906 Q406.8906,261.1563 406.5156,261.1563 Q406.1719,261.1563 405.9688,260.9531 Q405.7656,260.7656 405.6563,260.25 Q405.6094,259.8906 405.4219,259.7031 Q405.0938,259.3281 404.4844,259.1094 Q403.875,258.8906 403.25,258.8906 Q402.4844,258.8906 401.8516,259.2188 Q401.2188,259.5469 400.7266,260.2969 Q400.2344,261.0469 400.2344,262.0781 L400.2344,263.1719 Q400.2344,264.4063 401.125,265.2266 Q402.0156,266.0469 403.6094,266.0469 Q404.5469,266.0469 405.2031,265.7969 Q405.5938,265.6406 406.0156,265.2031 Q406.2813,264.9375 406.4297,264.8594 Q406.5781,264.7813 406.7813,264.7813 Q407.1094,264.7813 407.3672,265.0391 Q407.625,265.2969 407.625,265.6406 Q407.625,265.9844 407.2813,266.3906 Q406.7813,266.9688 405.9844,267.2969 Q404.9063,267.75 403.6094,267.75 Q402.0938,267.75 400.8906,267.125 Q399.9063,266.625 399.2188,265.5547 Q398.5313,264.4844 398.5313,263.2031 L398.5313,262.0469 Q398.5313,260.7188 399.1484,259.5703 Q399.7656,258.4219 400.8594,257.8047 Q401.9531,257.1875 403.1875,257.1875 Q403.9219,257.1875 404.5703,257.3516 Q405.2188,257.5156 405.7656,257.875 Z "/><text fill="#000000" font-family="sans-serif" font-size="12" lengthAdjust="spacingAndGlyphs" textLength="94" x="417" y="266.9102">DATA: Raw clean</text><line style="stroke: #A80036; stroke-width: 1.5;" x1="389" x2="513" y1="278" y2="278"/><line style="stroke: #A80036; stroke-width: 1.5;" x1="389" x2="513" y1="286" y2="286"/><path d="M311.5,354 L311.5,641.9766 A0,0 0 0 0 311.5,641.9766 L476.5,641.9766 A0,0 0 0 0 476.5,641.9766 L476.5,364 L466.5,354 L434.082,354 L445.115,294.335 L426.082,354 L311.5,354 A0,0 0 0 0 311.5,354 " fill="#FBFB77" filter="url(#f64c5dudpwiqm)" style="stroke: #A80036; stroke-width: 1.0;"/><path d="M466.5,354 L466.5,364 L476.5,364 L466.5,354 " fill="#FBFB77" style="stroke: #A80036; stroke-width: 1.0;"/><text fill="#000000" font-family="sans-serif" font-size="13" lengthAdjust="spacingAndGlyphs" textLength="140" x="317.5" y="372.4951">- All flights except those</text><text fill="#000000" font-family="sans-serif" font-size="13" lengthAdjust="spacingAndGlyphs" textLength="113" x="325.5" y="388.8467">without gen params</text><text fill="#000000" font-family="sans-serif" font-size="13" lengthAdjust="spacingAndGlyphs" textLength="0" x="325.5" y="405.1982"/><text fill="#000000" font-family="sans-serif" font-size="13" lengthAdjust="spacingAndGlyphs" textLength="135" x="317.5" y="421.5498">- Only selected params</text><text fill="#000000" font-family="sans-serif" font-size="13" lengthAdjust="spacingAndGlyphs" textLength="122" x="325.5" y="437.9014">are cleaned. The rest</text><text fill="#000000" font-family="sans-serif" font-size="13" lengthAdjust="spacingAndGlyphs" textLength="107" x="325.5" y="454.2529">remain untouched.</text><text fill="#000000" font-family="sans-serif" font-size="13" lengthAdjust="spacingAndGlyphs" textLength="0" x="325.5" y="470.6045"/><text fill="#000000" font-family="sans-serif" font-size="13" lengthAdjust="spacingAndGlyphs" textLength="73" x="317.5" y="486.9561">- Data where</text><text fill="#000000" font-family="sans-serif" font-size="13" lengthAdjust="spacingAndGlyphs" textLength="129" x="325.5" y="503.3076">genFreq or genvolt = 0</text><text fill="#000000" font-family="sans-serif" font-size="13" lengthAdjust="spacingAndGlyphs" textLength="108" x="325.5" y="519.6592">will be emptied but</text><text fill="#000000" font-family="sans-serif" font-size="13" lengthAdjust="spacingAndGlyphs" textLength="105" x="325.5" y="536.0107">still exist as a file.</text><text fill="#000000" font-family="sans-serif" font-size="13" lengthAdjust="spacingAndGlyphs" textLength="0" x="321.5" y="552.3623"/><text fill="#000000" font-family="sans-serif" font-size="13" lengthAdjust="spacingAndGlyphs" textLength="137" x="317.5" y="568.7139">- Each mat file contains</text><text fill="#000000" font-family="sans-serif" font-size="13" lengthAdjust="spacingAndGlyphs" textLength="136" x="325.5" y="585.0654">2 tables. 1 for each gen</text><text fill="#000000" font-family="sans-serif" font-size="13" lengthAdjust="spacingAndGlyphs" textLength="0" x="321.5" y="601.417"/><text fill="#000000" font-family="sans-serif" font-size="13" lengthAdjust="spacingAndGlyphs" textLength="141" x="317.5" y="617.7686">- Calibrated time column</text><text fill="#000000" font-family="sans-serif" font-size="13" lengthAdjust="spacingAndGlyphs" textLength="0" x="321.5" y="634.1201"/><!--MD5=[66d1a59385d892f0e16f647380eaa649]
class DATA: Transformed data--><rect fill="#FEFECE" filter="url(#f64c5dudpwiqm)" height="48" id="DATA: Transformed data" style="stroke: #A80036; stroke-width: 1.5;" width="166" x="686" y="246"/><ellipse cx="701" cy="262" fill="#ADD1B2" rx="11" ry="11" style="stroke: #A80036; stroke-width: 1.0;"/><path d="M703.7656,257.875 Q703.9219,257.6563 704.1094,257.5469 Q704.2969,257.4375 704.5156,257.4375 Q704.8906,257.4375 705.125,257.6953 Q705.3594,257.9531 705.3594,258.5625 L705.3594,260.0156 Q705.3594,260.625 705.125,260.8906 Q704.8906,261.1563 704.5156,261.1563 Q704.1719,261.1563 703.9688,260.9531 Q703.7656,260.7656 703.6563,260.25 Q703.6094,259.8906 703.4219,259.7031 Q703.0938,259.3281 702.4844,259.1094 Q701.875,258.8906 701.25,258.8906 Q700.4844,258.8906 699.8516,259.2188 Q699.2188,259.5469 698.7266,260.2969 Q698.2344,261.0469 698.2344,262.0781 L698.2344,263.1719 Q698.2344,264.4063 699.125,265.2266 Q700.0156,266.0469 701.6094,266.0469 Q702.5469,266.0469 703.2031,265.7969 Q703.5938,265.6406 704.0156,265.2031 Q704.2813,264.9375 704.4297,264.8594 Q704.5781,264.7813 704.7813,264.7813 Q705.1094,264.7813 705.3672,265.0391 Q705.625,265.2969 705.625,265.6406 Q705.625,265.9844 705.2813,266.3906 Q704.7813,266.9688 703.9844,267.2969 Q702.9063,267.75 701.6094,267.75 Q700.0938,267.75 698.8906,267.125 Q697.9063,266.625 697.2188,265.5547 Q696.5313,264.4844 696.5313,263.2031 L696.5313,262.0469 Q696.5313,260.7188 697.1484,259.5703 Q697.7656,258.4219 698.8594,257.8047 Q699.9531,257.1875 701.1875,257.1875 Q701.9219,257.1875 702.5703,257.3516 Q703.2188,257.5156 703.7656,257.875 Z "/><text fill="#000000" font-family="sans-serif" font-size="12" lengthAdjust="spacingAndGlyphs" textLength="134" x="715" y="266.9102">DATA: Transformed data</text><line style="stroke: #A80036; stroke-width: 1.5;" x1="687" x2="851" y1="278" y2="278"/><line style="stroke: #A80036; stroke-width: 1.5;" x1="687" x2="851" y1="286" y2="286"/><path d="M676,370.5 L676,625.7734 A0,0 0 0 0 676,625.7734 L862,625.7734 A0,0 0 0 0 862,625.7734 L862,380.5 L852,370.5 L773,370.5 L769,294.335 L765,370.5 L676,370.5 A0,0 0 0 0 676,370.5 " fill="#FBFB77" filter="url(#f64c5dudpwiqm)" style="stroke: #A80036; stroke-width: 1.0;"/><path d="M852,370.5 L852,380.5 L862,380.5 L852,370.5 " fill="#FBFB77" style="stroke: #A80036; stroke-width: 1.0;"/><text fill="#000000" font-family="sans-serif" font-size="13" lengthAdjust="spacingAndGlyphs" textLength="152" x="682" y="388.9951">- Only flights from aircrafts</text><text fill="#000000" font-family="sans-serif" font-size="13" lengthAdjust="spacingAndGlyphs" textLength="124" x="690" y="405.3467">stated in IDG removal</text><text fill="#000000" font-family="sans-serif" font-size="13" lengthAdjust="spacingAndGlyphs" textLength="64" x="690" y="421.6982">dates table</text><text fill="#000000" font-family="sans-serif" font-size="13" lengthAdjust="spacingAndGlyphs" textLength="0" x="686" y="438.0498"/><text fill="#000000" font-family="sans-serif" font-size="13" lengthAdjust="spacingAndGlyphs" textLength="161" x="682" y="454.4014">- Doesn't include flights with</text><text fill="#000000" font-family="sans-serif" font-size="13" lengthAdjust="spacingAndGlyphs" textLength="62" x="690" y="470.7529">flightphase</text><text fill="#000000" font-family="sans-serif" font-size="13" lengthAdjust="spacingAndGlyphs" textLength="0" x="690" y="487.1045"/><text fill="#000000" font-family="sans-serif" font-size="13" lengthAdjust="spacingAndGlyphs" textLength="156" x="682" y="503.4561">- Columns not selected will</text><text fill="#000000" font-family="sans-serif" font-size="13" lengthAdjust="spacingAndGlyphs" textLength="66" x="690" y="519.8076">be removed</text><text fill="#000000" font-family="sans-serif" font-size="13" lengthAdjust="spacingAndGlyphs" textLength="0" x="690" y="536.1592"/><text fill="#000000" font-family="sans-serif" font-size="13" lengthAdjust="spacingAndGlyphs" textLength="133" x="682" y="552.5107">- Contains both original</text><text fill="#000000" font-family="sans-serif" font-size="13" lengthAdjust="spacingAndGlyphs" textLength="126" x="690" y="568.8623">&amp; normalised features</text><text fill="#000000" font-family="sans-serif" font-size="13" lengthAdjust="spacingAndGlyphs" textLength="0" x="690" y="585.2139"/><text fill="#000000" font-family="sans-serif" font-size="13" lengthAdjust="spacingAndGlyphs" textLength="115" x="682" y="601.5654">- 1 matfile -&gt; 1 flight</text><text fill="#000000" font-family="sans-serif" font-size="13" lengthAdjust="spacingAndGlyphs" textLength="0" x="686" y="617.917"/><!--MD5=[0cc64a2cfa65379b6f7c19d84a8cac8a]
class DATA: Processed data--><rect fill="#FEFECE" filter="url(#f64c5dudpwiqm)" height="48" id="DATA: Processed data" style="stroke: #A80036; stroke-width: 1.5;" width="155" x="1046.5" y="246"/><ellipse cx="1061.5" cy="262" fill="#ADD1B2" rx="11" ry="11" style="stroke: #A80036; stroke-width: 1.0;"/><path d="M1064.2656,257.875 Q1064.4219,257.6563 1064.6094,257.5469 Q1064.7969,257.4375 1065.0156,257.4375 Q1065.3906,257.4375 1065.625,257.6953 Q1065.8594,257.9531 1065.8594,258.5625 L1065.8594,260.0156 Q1065.8594,260.625 1065.625,260.8906 Q1065.3906,261.1563 1065.0156,261.1563 Q1064.6719,261.1563 1064.4688,260.9531 Q1064.2656,260.7656 1064.1563,260.25 Q1064.1094,259.8906 1063.9219,259.7031 Q1063.5938,259.3281 1062.9844,259.1094 Q1062.375,258.8906 1061.75,258.8906 Q1060.9844,258.8906 1060.3516,259.2188 Q1059.7188,259.5469 1059.2266,260.2969 Q1058.7344,261.0469 1058.7344,262.0781 L1058.7344,263.1719 Q1058.7344,264.4063 1059.625,265.2266 Q1060.5156,266.0469 1062.1094,266.0469 Q1063.0469,266.0469 1063.7031,265.7969 Q1064.0938,265.6406 1064.5156,265.2031 Q1064.7813,264.9375 1064.9297,264.8594 Q1065.0781,264.7813 1065.2813,264.7813 Q1065.6094,264.7813 1065.8672,265.0391 Q1066.125,265.2969 1066.125,265.6406 Q1066.125,265.9844 1065.7813,266.3906 Q1065.2813,266.9688 1064.4844,267.2969 Q1063.4063,267.75 1062.1094,267.75 Q1060.5938,267.75 1059.3906,267.125 Q1058.4063,266.625 1057.7188,265.5547 Q1057.0313,264.4844 1057.0313,263.2031 L1057.0313,262.0469 Q1057.0313,260.7188 1057.6484,259.5703 Q1058.2656,258.4219 1059.3594,257.8047 Q1060.4531,257.1875 1061.6875,257.1875 Q1062.4219,257.1875 1063.0703,257.3516 Q1063.7188,257.5156 1064.2656,257.875 Z "/><text fill="#000000" font-family="sans-serif" font-size="12" lengthAdjust="spacingAndGlyphs" textLength="123" x="1075.5" y="266.9102">DATA: Processed data</text><line style="stroke: #A80036; stroke-width: 1.5;" x1="1047.5" x2="1200.5" y1="278" y2="278"/><line style="stroke: #A80036; stroke-width: 1.5;" x1="1047.5" x2="1200.5" y1="286" y2="286"/><path d="M1040,395 L1040,601.2188 A0,0 0 0 0 1040,601.2188 L1208,601.2188 A0,0 0 0 0 1208,601.2188 L1208,405 L1198,395 L1128,395 L1124,294.335 L1120,395 L1040,395 A0,0 0 0 0 1040,395 " fill="#FBFB77" filter="url(#f64c5dudpwiqm)" style="stroke: #A80036; stroke-width: 1.0;"/><path d="M1198,395 L1198,405 L1208,405 L1198,395 " fill="#FBFB77" style="stroke: #A80036; stroke-width: 1.0;"/><text fill="#000000" font-family="sans-serif" font-size="13" lengthAdjust="spacingAndGlyphs" textLength="144" x="1046" y="413.4951">- All flights stated in CAT</text><text fill="#000000" font-family="sans-serif" font-size="13" lengthAdjust="spacingAndGlyphs" textLength="0" x="1054" y="429.8467"/><text fill="#000000" font-family="sans-serif" font-size="13" lengthAdjust="spacingAndGlyphs" textLength="147" x="1046" y="446.1982">- Can contain flight phase</text><text fill="#000000" font-family="sans-serif" font-size="13" lengthAdjust="spacingAndGlyphs" textLength="0" x="1050" y="462.5498"/><text fill="#000000" font-family="sans-serif" font-size="13" lengthAdjust="spacingAndGlyphs" textLength="124" x="1046" y="478.9014">- Only certain phases</text><text fill="#000000" font-family="sans-serif" font-size="13" lengthAdjust="spacingAndGlyphs" textLength="133" x="1054" y="495.2529">each flight are included</text><text fill="#000000" font-family="sans-serif" font-size="13" lengthAdjust="spacingAndGlyphs" textLength="0" x="1050" y="511.6045"/><text fill="#000000" font-family="sans-serif" font-size="13" lengthAdjust="spacingAndGlyphs" textLength="113" x="1046" y="527.9561">- 1 matfile -&gt; 1 data</text><text fill="#000000" font-family="sans-serif" font-size="13" lengthAdjust="spacingAndGlyphs" textLength="56" x="1054" y="544.3076">ensemble</text><text fill="#000000" font-family="sans-serif" font-size="13" lengthAdjust="spacingAndGlyphs" textLength="0" x="1054" y="560.6592"/><text fill="#000000" font-family="sans-serif" font-size="13" lengthAdjust="spacingAndGlyphs" textLength="141" x="1046" y="577.0107">- Features will be placed</text><text fill="#000000" font-family="sans-serif" font-size="13" lengthAdjust="spacingAndGlyphs" textLength="103" x="1054" y="593.3623">in another column</text><!--MD5=[0410d85e7b0878769ef5f2276ad15c5d]
class data2Mat\n Converter--><rect fill="#FEFECE" filter="url(#f64c5dudpwiqm)" height="56.1875" id="data2Mat\n Converter" style="stroke: #A80036; stroke-width: 1.5;" width="88" x="38" y="470"/><ellipse cx="53" cy="490.0938" fill="#ADD1B2" rx="11" ry="11" style="stroke: #A80036; stroke-width: 1.0;"/><path d="M55.7656,485.9688 Q55.9219,485.75 56.1094,485.6406 Q56.2969,485.5313 56.5156,485.5313 Q56.8906,485.5313 57.125,485.7891 Q57.3594,486.0469 57.3594,486.6563 L57.3594,488.1094 Q57.3594,488.7188 57.125,488.9844 Q56.8906,489.25 56.5156,489.25 Q56.1719,489.25 55.9688,489.0469 Q55.7656,488.8594 55.6563,488.3438 Q55.6094,487.9844 55.4219,487.7969 Q55.0938,487.4219 54.4844,487.2031 Q53.875,486.9844 53.25,486.9844 Q52.4844,486.9844 51.8516,487.3125 Q51.2188,487.6406 50.7266,488.3906 Q50.2344,489.1406 50.2344,490.1719 L50.2344,491.2656 Q50.2344,492.5 51.125,493.3203 Q52.0156,494.1406 53.6094,494.1406 Q54.5469,494.1406 55.2031,493.8906 Q55.5938,493.7344 56.0156,493.2969 Q56.2813,493.0313 56.4297,492.9531 Q56.5781,492.875 56.7813,492.875 Q57.1094,492.875 57.3672,493.1328 Q57.625,493.3906 57.625,493.7344 Q57.625,494.0781 57.2813,494.4844 Q56.7813,495.0625 55.9844,495.3906 Q54.9063,495.8438 53.6094,495.8438 Q52.0938,495.8438 50.8906,495.2188 Q49.9063,494.7188 49.2188,493.6484 Q48.5313,492.5781 48.5313,491.2969 L48.5313,490.1406 Q48.5313,488.8125 49.1484,487.6641 Q49.7656,486.5156 50.8594,485.8984 Q51.9531,485.2813 53.1875,485.2813 Q53.9219,485.2813 54.5703,485.4453 Q55.2188,485.6094 55.7656,485.9688 Z "/><text fill="#000000" font-family="sans-serif" font-size="12" lengthAdjust="spacingAndGlyphs" textLength="50" x="70" y="487.457">data2Mat</text><text fill="#000000" font-family="sans-serif" font-size="12" lengthAdjust="spacingAndGlyphs" textLength="53" x="70" y="502.5508">Converter</text><line style="stroke: #A80036; stroke-width: 1.5;" x1="39" x2="125" y1="510.1875" y2="510.1875"/><line style="stroke: #A80036; stroke-width: 1.5;" x1="39" x2="125" y1="518.1875" y2="518.1875"/><!--MD5=[3deb8ceb7b7fd76b68948853001339d8]
class generate\n Masterlist 1--><rect fill="#FEFECE" filter="url(#f64c5dudpwiqm)" height="56.1875" id="generate\n Masterlist 1" style="stroke: #A80036; stroke-width: 1.5;" width="98" x="221" y="122.5"/><ellipse cx="236" cy="142.5938" fill="#ADD1B2" rx="11" ry="11" style="stroke: #A80036; stroke-width: 1.0;"/><path d="M238.7656,138.4688 Q238.9219,138.25 239.1094,138.1406 Q239.2969,138.0313 239.5156,138.0313 Q239.8906,138.0313 240.125,138.2891 Q240.3594,138.5469 240.3594,139.1563 L240.3594,140.6094 Q240.3594,141.2188 240.125,141.4844 Q239.8906,141.75 239.5156,141.75 Q239.1719,141.75 238.9688,141.5469 Q238.7656,141.3594 238.6563,140.8438 Q238.6094,140.4844 238.4219,140.2969 Q238.0938,139.9219 237.4844,139.7031 Q236.875,139.4844 236.25,139.4844 Q235.4844,139.4844 234.8516,139.8125 Q234.2188,140.1406 233.7266,140.8906 Q233.2344,141.6406 233.2344,142.6719 L233.2344,143.7656 Q233.2344,145 234.125,145.8203 Q235.0156,146.6406 236.6094,146.6406 Q237.5469,146.6406 238.2031,146.3906 Q238.5938,146.2344 239.0156,145.7969 Q239.2813,145.5313 239.4297,145.4531 Q239.5781,145.375 239.7813,145.375 Q240.1094,145.375 240.3672,145.6328 Q240.625,145.8906 240.625,146.2344 Q240.625,146.5781 240.2813,146.9844 Q239.7813,147.5625 238.9844,147.8906 Q237.9063,148.3438 236.6094,148.3438 Q235.0938,148.3438 233.8906,147.7188 Q232.9063,147.2188 232.2188,146.1484 Q231.5313,145.0781 231.5313,143.7969 L231.5313,142.6406 Q231.5313,141.3125 232.1484,140.1641 Q232.7656,139.0156 233.8594,138.3984 Q234.9531,137.7813 236.1875,137.7813 Q236.9219,137.7813 237.5703,137.9453 Q238.2188,138.1094 238.7656,138.4688 Z "/><text fill="#000000" font-family="sans-serif" font-size="12" lengthAdjust="spacingAndGlyphs" textLength="49" x="258.5" y="139.957">generate</text><text fill="#000000" font-family="sans-serif" font-size="12" lengthAdjust="spacingAndGlyphs" textLength="63" x="253" y="155.0508">Masterlist 1</text><line style="stroke: #A80036; stroke-width: 1.5;" x1="222" x2="318" y1="162.6875" y2="162.6875"/><line style="stroke: #A80036; stroke-width: 1.5;" x1="222" x2="318" y1="170.6875" y2="170.6875"/><!--MD5=[9c70471c0bc24e76cd910757600b8c02]
class dataCleaner--><rect fill="#FEFECE" filter="url(#f64c5dudpwiqm)" height="48" id="dataCleaner" style="stroke: #A80036; stroke-width: 1.5;" width="100" x="176" y="474"/><ellipse cx="191" cy="490" fill="#ADD1B2" rx="11" ry="11" style="stroke: #A80036; stroke-width: 1.0;"/><path d="M193.7656,485.875 Q193.9219,485.6563 194.1094,485.5469 Q194.2969,485.4375 194.5156,485.4375 Q194.8906,485.4375 195.125,485.6953 Q195.3594,485.9531 195.3594,486.5625 L195.3594,488.0156 Q195.3594,488.625 195.125,488.8906 Q194.8906,489.1563 194.5156,489.1563 Q194.1719,489.1563 193.9688,488.9531 Q193.7656,488.7656 193.6563,488.25 Q193.6094,487.8906 193.4219,487.7031 Q193.0938,487.3281 192.4844,487.1094 Q191.875,486.8906 191.25,486.8906 Q190.4844,486.8906 189.8516,487.2188 Q189.2188,487.5469 188.7266,488.2969 Q188.2344,489.0469 188.2344,490.0781 L188.2344,491.1719 Q188.2344,492.4063 189.125,493.2266 Q190.0156,494.0469 191.6094,494.0469 Q192.5469,494.0469 193.2031,493.7969 Q193.5938,493.6406 194.0156,493.2031 Q194.2813,492.9375 194.4297,492.8594 Q194.5781,492.7813 194.7813,492.7813 Q195.1094,492.7813 195.3672,493.0391 Q195.625,493.2969 195.625,493.6406 Q195.625,493.9844 195.2813,494.3906 Q194.7813,494.9688 193.9844,495.2969 Q192.9063,495.75 191.6094,495.75 Q190.0938,495.75 188.8906,495.125 Q187.9063,494.625 187.2188,493.5547 Q186.5313,492.4844 186.5313,491.2031 L186.5313,490.0469 Q186.5313,488.7188 187.1484,487.5703 Q187.7656,486.4219 188.8594,485.8047 Q189.9531,485.1875 191.1875,485.1875 Q191.9219,485.1875 192.5703,485.3516 Q193.2188,485.5156 193.7656,485.875 Z "/><text fill="#000000" font-family="sans-serif" font-size="12" lengthAdjust="spacingAndGlyphs" textLength="68" x="205" y="494.9102">dataCleaner</text><line style="stroke: #A80036; stroke-width: 1.5;" x1="177" x2="275" y1="506" y2="506"/><line style="stroke: #A80036; stroke-width: 1.5;" x1="177" x2="275" y1="514" y2="514"/><!--MD5=[e17744456736e61a73286ebcf75b7419]
class Pre-process Data--><rect fill="#FEFECE" filter="url(#f64c5dudpwiqm)" height="48" id="Pre-process Data" style="stroke: #A80036; stroke-width: 1.5;" width="129" x="511.5" y="474"/><ellipse cx="526.5" cy="490" fill="#ADD1B2" rx="11" ry="11" style="stroke: #A80036; stroke-width: 1.0;"/><path d="M529.2656,485.875 Q529.4219,485.6563 529.6094,485.5469 Q529.7969,485.4375 530.0156,485.4375 Q530.3906,485.4375 530.625,485.6953 Q530.8594,485.9531 530.8594,486.5625 L530.8594,488.0156 Q530.8594,488.625 530.625,488.8906 Q530.3906,489.1563 530.0156,489.1563 Q529.6719,489.1563 529.4688,488.9531 Q529.2656,488.7656 529.1563,488.25 Q529.1094,487.8906 528.9219,487.7031 Q528.5938,487.3281 527.9844,487.1094 Q527.375,486.8906 526.75,486.8906 Q525.9844,486.8906 525.3516,487.2188 Q524.7188,487.5469 524.2266,488.2969 Q523.7344,489.0469 523.7344,490.0781 L523.7344,491.1719 Q523.7344,492.4063 524.625,493.2266 Q525.5156,494.0469 527.1094,494.0469 Q528.0469,494.0469 528.7031,493.7969 Q529.0938,493.6406 529.5156,493.2031 Q529.7813,492.9375 529.9297,492.8594 Q530.0781,492.7813 530.2813,492.7813 Q530.6094,492.7813 530.8672,493.0391 Q531.125,493.2969 531.125,493.6406 Q531.125,493.9844 530.7813,494.3906 Q530.2813,494.9688 529.4844,495.2969 Q528.4063,495.75 527.1094,495.75 Q525.5938,495.75 524.3906,495.125 Q523.4063,494.625 522.7188,493.5547 Q522.0313,492.4844 522.0313,491.2031 L522.0313,490.0469 Q522.0313,488.7188 522.6484,487.5703 Q523.2656,486.4219 524.3594,485.8047 Q525.4531,485.1875 526.6875,485.1875 Q527.4219,485.1875 528.0703,485.3516 Q528.7188,485.5156 529.2656,485.875 Z "/><text fill="#000000" font-family="sans-serif" font-size="12" lengthAdjust="spacingAndGlyphs" textLength="97" x="540.5" y="494.9102">Pre-process Data</text><line style="stroke: #A80036; stroke-width: 1.5;" x1="512.5" x2="639.5" y1="506" y2="506"/><line style="stroke: #A80036; stroke-width: 1.5;" x1="512.5" x2="639.5" y1="514" y2="514"/><!--MD5=[03620fb7ae3612487733c86e68f53e1c]
class generate\n Masterlist 2--><rect fill="#FEFECE" filter="url(#f64c5dudpwiqm)" height="56.1875" id="generate\n Masterlist 2" style="stroke: #A80036; stroke-width: 1.5;" width="98" x="402" y="122.5"/><ellipse cx="417" cy="142.5938" fill="#ADD1B2" rx="11" ry="11" style="stroke: #A80036; stroke-width: 1.0;"/><path d="M419.7656,138.4688 Q419.9219,138.25 420.1094,138.1406 Q420.2969,138.0313 420.5156,138.0313 Q420.8906,138.0313 421.125,138.2891 Q421.3594,138.5469 421.3594,139.1563 L421.3594,140.6094 Q421.3594,141.2188 421.125,141.4844 Q420.8906,141.75 420.5156,141.75 Q420.1719,141.75 419.9688,141.5469 Q419.7656,141.3594 419.6563,140.8438 Q419.6094,140.4844 419.4219,140.2969 Q419.0938,139.9219 418.4844,139.7031 Q417.875,139.4844 417.25,139.4844 Q416.4844,139.4844 415.8516,139.8125 Q415.2188,140.1406 414.7266,140.8906 Q414.2344,141.6406 414.2344,142.6719 L414.2344,143.7656 Q414.2344,145 415.125,145.8203 Q416.0156,146.6406 417.6094,146.6406 Q418.5469,146.6406 419.2031,146.3906 Q419.5938,146.2344 420.0156,145.7969 Q420.2813,145.5313 420.4297,145.4531 Q420.5781,145.375 420.7813,145.375 Q421.1094,145.375 421.3672,145.6328 Q421.625,145.8906 421.625,146.2344 Q421.625,146.5781 421.2813,146.9844 Q420.7813,147.5625 419.9844,147.8906 Q418.9063,148.3438 417.6094,148.3438 Q416.0938,148.3438 414.8906,147.7188 Q413.9063,147.2188 413.2188,146.1484 Q412.5313,145.0781 412.5313,143.7969 L412.5313,142.6406 Q412.5313,141.3125 413.1484,140.1641 Q413.7656,139.0156 414.8594,138.3984 Q415.9531,137.7813 417.1875,137.7813 Q417.9219,137.7813 418.5703,137.9453 Q419.2188,138.1094 419.7656,138.4688 Z "/><text fill="#000000" font-family="sans-serif" font-size="12" lengthAdjust="spacingAndGlyphs" textLength="49" x="439.5" y="139.957">generate</text><text fill="#000000" font-family="sans-serif" font-size="12" lengthAdjust="spacingAndGlyphs" textLength="63" x="434" y="155.0508">Masterlist 2</text><line style="stroke: #A80036; stroke-width: 1.5;" x1="403" x2="499" y1="162.6875" y2="162.6875"/><line style="stroke: #A80036; stroke-width: 1.5;" x1="403" x2="499" y1="170.6875" y2="170.6875"/><!--MD5=[aaba94b950f1f94b660a9f61a1a42564]
class Process Data--><rect fill="#FEFECE" filter="url(#f64c5dudpwiqm)" height="48" id="Process Data" style="stroke: #A80036; stroke-width: 1.5;" width="107" x="897.5" y="474"/><ellipse cx="912.5" cy="490" fill="#ADD1B2" rx="11" ry="11" style="stroke: #A80036; stroke-width: 1.0;"/><path d="M915.2656,485.875 Q915.4219,485.6563 915.6094,485.5469 Q915.7969,485.4375 916.0156,485.4375 Q916.3906,485.4375 916.625,485.6953 Q916.8594,485.9531 916.8594,486.5625 L916.8594,488.0156 Q916.8594,488.625 916.625,488.8906 Q916.3906,489.1563 916.0156,489.1563 Q915.6719,489.1563 915.4688,488.9531 Q915.2656,488.7656 915.1563,488.25 Q915.1094,487.8906 914.9219,487.7031 Q914.5938,487.3281 913.9844,487.1094 Q913.375,486.8906 912.75,486.8906 Q911.9844,486.8906 911.3516,487.2188 Q910.7188,487.5469 910.2266,488.2969 Q909.7344,489.0469 909.7344,490.0781 L909.7344,491.1719 Q909.7344,492.4063 910.625,493.2266 Q911.5156,494.0469 913.1094,494.0469 Q914.0469,494.0469 914.7031,493.7969 Q915.0938,493.6406 915.5156,493.2031 Q915.7813,492.9375 915.9297,492.8594 Q916.0781,492.7813 916.2813,492.7813 Q916.6094,492.7813 916.8672,493.0391 Q917.125,493.2969 917.125,493.6406 Q917.125,493.9844 916.7813,494.3906 Q916.2813,494.9688 915.4844,495.2969 Q914.4063,495.75 913.1094,495.75 Q911.5938,495.75 910.3906,495.125 Q909.4063,494.625 908.7188,493.5547 Q908.0313,492.4844 908.0313,491.2031 L908.0313,490.0469 Q908.0313,488.7188 908.6484,487.5703 Q909.2656,486.4219 910.3594,485.8047 Q911.4531,485.1875 912.6875,485.1875 Q913.4219,485.1875 914.0703,485.3516 Q914.7188,485.5156 915.2656,485.875 Z "/><text fill="#000000" font-family="sans-serif" font-size="12" lengthAdjust="spacingAndGlyphs" textLength="75" x="926.5" y="494.9102">Process Data</text><line style="stroke: #A80036; stroke-width: 1.5;" x1="898.5" x2="1003.5" y1="506" y2="506"/><line style="stroke: #A80036; stroke-width: 1.5;" x1="898.5" x2="1003.5" y1="514" y2="514"/><!--MD5=[23e35763478c83ed9d944b5cba467483]
class generate\n Masterlist 3--><rect fill="#FEFECE" filter="url(#f64c5dudpwiqm)" height="56.1875" id="generate\n Masterlist 3" style="stroke: #A80036; stroke-width: 1.5;" width="98" x="720" y="122.5"/><ellipse cx="735" cy="142.5938" fill="#ADD1B2" rx="11" ry="11" style="stroke: #A80036; stroke-width: 1.0;"/><path d="M737.7656,138.4688 Q737.9219,138.25 738.1094,138.1406 Q738.2969,138.0313 738.5156,138.0313 Q738.8906,138.0313 739.125,138.2891 Q739.3594,138.5469 739.3594,139.1563 L739.3594,140.6094 Q739.3594,141.2188 739.125,141.4844 Q738.8906,141.75 738.5156,141.75 Q738.1719,141.75 737.9688,141.5469 Q737.7656,141.3594 737.6563,140.8438 Q737.6094,140.4844 737.4219,140.2969 Q737.0938,139.9219 736.4844,139.7031 Q735.875,139.4844 735.25,139.4844 Q734.4844,139.4844 733.8516,139.8125 Q733.2188,140.1406 732.7266,140.8906 Q732.2344,141.6406 732.2344,142.6719 L732.2344,143.7656 Q732.2344,145 733.125,145.8203 Q734.0156,146.6406 735.6094,146.6406 Q736.5469,146.6406 737.2031,146.3906 Q737.5938,146.2344 738.0156,145.7969 Q738.2813,145.5313 738.4297,145.4531 Q738.5781,145.375 738.7813,145.375 Q739.1094,145.375 739.3672,145.6328 Q739.625,145.8906 739.625,146.2344 Q739.625,146.5781 739.2813,146.9844 Q738.7813,147.5625 737.9844,147.8906 Q736.9063,148.3438 735.6094,148.3438 Q734.0938,148.3438 732.8906,147.7188 Q731.9063,147.2188 731.2188,146.1484 Q730.5313,145.0781 730.5313,143.7969 L730.5313,142.6406 Q730.5313,141.3125 731.1484,140.1641 Q731.7656,139.0156 732.8594,138.3984 Q733.9531,137.7813 735.1875,137.7813 Q735.9219,137.7813 736.5703,137.9453 Q737.2188,138.1094 737.7656,138.4688 Z "/><text fill="#000000" font-family="sans-serif" font-size="12" lengthAdjust="spacingAndGlyphs" textLength="49" x="757.5" y="139.957">generate</text><text fill="#000000" font-family="sans-serif" font-size="12" lengthAdjust="spacingAndGlyphs" textLength="63" x="752" y="155.0508">Masterlist 3</text><line style="stroke: #A80036; stroke-width: 1.5;" x1="721" x2="817" y1="162.6875" y2="162.6875"/><line style="stroke: #A80036; stroke-width: 1.5;" x1="721" x2="817" y1="170.6875" y2="170.6875"/><!--MD5=[f1f34e6b0d6b4b23a131da76e1142347]
class IDG Removal Dates masterlist--><rect fill="#FEFECE" filter="url(#f64c5dudpwiqm)" height="48" id="IDG Removal Dates masterlist" style="stroke: #A80036; stroke-width: 1.5;" width="199" x="510.5" y="7"/><ellipse cx="525.5" cy="23" fill="#ADD1B2" rx="11" ry="11" style="stroke: #A80036; stroke-width: 1.0;"/><path d="M528.2656,18.875 Q528.4219,18.6563 528.6094,18.5469 Q528.7969,18.4375 529.0156,18.4375 Q529.3906,18.4375 529.625,18.6953 Q529.8594,18.9531 529.8594,19.5625 L529.8594,21.0156 Q529.8594,21.625 529.625,21.8906 Q529.3906,22.1563 529.0156,22.1563 Q528.6719,22.1563 528.4688,21.9531 Q528.2656,21.7656 528.1563,21.25 Q528.1094,20.8906 527.9219,20.7031 Q527.5938,20.3281 526.9844,20.1094 Q526.375,19.8906 525.75,19.8906 Q524.9844,19.8906 524.3516,20.2188 Q523.7188,20.5469 523.2266,21.2969 Q522.7344,22.0469 522.7344,23.0781 L522.7344,24.1719 Q522.7344,25.4063 523.625,26.2266 Q524.5156,27.0469 526.1094,27.0469 Q527.0469,27.0469 527.7031,26.7969 Q528.0938,26.6406 528.5156,26.2031 Q528.7813,25.9375 528.9297,25.8594 Q529.0781,25.7813 529.2813,25.7813 Q529.6094,25.7813 529.8672,26.0391 Q530.125,26.2969 530.125,26.6406 Q530.125,26.9844 529.7813,27.3906 Q529.2813,27.9688 528.4844,28.2969 Q527.4063,28.75 526.1094,28.75 Q524.5938,28.75 523.3906,28.125 Q522.4063,27.625 521.7188,26.5547 Q521.0313,25.4844 521.0313,24.2031 L521.0313,23.0469 Q521.0313,21.7188 521.6484,20.5703 Q522.2656,19.4219 523.3594,18.8047 Q524.4531,18.1875 525.6875,18.1875 Q526.4219,18.1875 527.0703,18.3516 Q527.7188,18.5156 528.2656,18.875 Z "/><text fill="#000000" font-family="sans-serif" font-size="12" lengthAdjust="spacingAndGlyphs" textLength="167" x="539.5" y="27.9102">IDG Removal Dates masterlist</text><line style="stroke: #A80036; stroke-width: 1.5;" x1="511.5" x2="708.5" y1="39" y2="39"/><line style="stroke: #A80036; stroke-width: 1.5;" x1="511.5" x2="708.5" y1="47" y2="47"/><!--MD5=[a40ddbbcff73c855372dc3d2d43fdc2c]
class Generate Accounting\n Table for the different\n cases of removal--><rect fill="#FEFECE" filter="url(#f64c5dudpwiqm)" height="71.2813" id="Generate Accounting\n Table for the different\n cases of removal" style="stroke: #A80036; stroke-width: 1.5;" width="150" x="535" y="115"/><ellipse cx="550" cy="142.6406" fill="#ADD1B2" rx="11" ry="11" style="stroke: #A80036; stroke-width: 1.0;"/><path d="M552.7656,138.5156 Q552.9219,138.2969 553.1094,138.1875 Q553.2969,138.0781 553.5156,138.0781 Q553.8906,138.0781 554.125,138.3359 Q554.3594,138.5938 554.3594,139.2031 L554.3594,140.6563 Q554.3594,141.2656 554.125,141.5313 Q553.8906,141.7969 553.5156,141.7969 Q553.1719,141.7969 552.9688,141.5938 Q552.7656,141.4063 552.6563,140.8906 Q552.6094,140.5313 552.4219,140.3438 Q552.0938,139.9688 551.4844,139.75 Q550.875,139.5313 550.25,139.5313 Q549.4844,139.5313 548.8516,139.8594 Q548.2188,140.1875 547.7266,140.9375 Q547.2344,141.6875 547.2344,142.7188 L547.2344,143.8125 Q547.2344,145.0469 548.125,145.8672 Q549.0156,146.6875 550.6094,146.6875 Q551.5469,146.6875 552.2031,146.4375 Q552.5938,146.2813 553.0156,145.8438 Q553.2813,145.5781 553.4297,145.5 Q553.5781,145.4219 553.7813,145.4219 Q554.1094,145.4219 554.3672,145.6797 Q554.625,145.9375 554.625,146.2813 Q554.625,146.625 554.2813,147.0313 Q553.7813,147.6094 552.9844,147.9375 Q551.9063,148.3906 550.6094,148.3906 Q549.0938,148.3906 547.8906,147.7656 Q546.9063,147.2656 546.2188,146.1953 Q545.5313,145.125 545.5313,143.8438 L545.5313,142.6875 Q545.5313,141.3594 546.1484,140.2109 Q546.7656,139.0625 547.8594,138.4453 Q548.9531,137.8281 550.1875,137.8281 Q550.9219,137.8281 551.5703,137.9922 Q552.2188,138.1563 552.7656,138.5156 Z "/><text fill="#000000" font-family="sans-serif" font-size="12" lengthAdjust="spacingAndGlyphs" textLength="114" x="566" y="132.457">Generate Accounting</text><text fill="#000000" font-family="sans-serif" font-size="12" lengthAdjust="spacingAndGlyphs" textLength="115" x="567" y="147.5508">Table for the different</text><text fill="#000000" font-family="sans-serif" font-size="12" lengthAdjust="spacingAndGlyphs" textLength="94" x="577.5" y="162.6445">cases of removal</text><line style="stroke: #A80036; stroke-width: 1.5;" x1="536" x2="684" y1="170.2813" y2="170.2813"/><line style="stroke: #A80036; stroke-width: 1.5;" x1="536" x2="684" y1="178.2813" y2="178.2813"/><!--MD5=[d89f2c11464359d49727c8a0b3315871]
class Check for usable transformed data--><rect fill="#FEFECE" filter="url(#f64c5dudpwiqm)" height="48" id="Check for usable transformed data" style="stroke: #A80036; stroke-width: 1.5;" width="222" x="853" y="126.5"/><ellipse cx="868" cy="142.5" fill="#ADD1B2" rx="11" ry="11" style="stroke: #A80036; stroke-width: 1.0;"/><path d="M870.7656,138.375 Q870.9219,138.1563 871.1094,138.0469 Q871.2969,137.9375 871.5156,137.9375 Q871.8906,137.9375 872.125,138.1953 Q872.3594,138.4531 872.3594,139.0625 L872.3594,140.5156 Q872.3594,141.125 872.125,141.3906 Q871.8906,141.6563 871.5156,141.6563 Q871.1719,141.6563 870.9688,141.4531 Q870.7656,141.2656 870.6563,140.75 Q870.6094,140.3906 870.4219,140.2031 Q870.0938,139.8281 869.4844,139.6094 Q868.875,139.3906 868.25,139.3906 Q867.4844,139.3906 866.8516,139.7188 Q866.2188,140.0469 865.7266,140.7969 Q865.2344,141.5469 865.2344,142.5781 L865.2344,143.6719 Q865.2344,144.9063 866.125,145.7266 Q867.0156,146.5469 868.6094,146.5469 Q869.5469,146.5469 870.2031,146.2969 Q870.5938,146.1406 871.0156,145.7031 Q871.2813,145.4375 871.4297,145.3594 Q871.5781,145.2813 871.7813,145.2813 Q872.1094,145.2813 872.3672,145.5391 Q872.625,145.7969 872.625,146.1406 Q872.625,146.4844 872.2813,146.8906 Q871.7813,147.4688 870.9844,147.7969 Q869.9063,148.25 868.6094,148.25 Q867.0938,148.25 865.8906,147.625 Q864.9063,147.125 864.2188,146.0547 Q863.5313,144.9844 863.5313,143.7031 L863.5313,142.5469 Q863.5313,141.2188 864.1484,140.0703 Q864.7656,138.9219 865.8594,138.3047 Q866.9531,137.6875 868.1875,137.6875 Q868.9219,137.6875 869.5703,137.8516 Q870.2188,138.0156 870.7656,138.375 Z "/><text fill="#000000" font-family="sans-serif" font-size="12" lengthAdjust="spacingAndGlyphs" textLength="190" x="882" y="147.4102">Check for usable transformed data</text><line style="stroke: #A80036; stroke-width: 1.5;" x1="854" x2="1074" y1="158.5" y2="158.5"/><line style="stroke: #A80036; stroke-width: 1.5;" x1="854" x2="1074" y1="166.5" y2="166.5"/><!--MD5=[6943335546cbf5b4d08117e0f0b3fce9]
class dataLabeller--><rect fill="#FEFECE" filter="url(#f64c5dudpwiqm)" height="48" id="dataLabeller" style="stroke: #A80036; stroke-width: 1.5;" width="101" x="1243.5" y="474"/><ellipse cx="1258.5" cy="490" fill="#ADD1B2" rx="11" ry="11" style="stroke: #A80036; stroke-width: 1.0;"/><path d="M1261.2656,485.875 Q1261.4219,485.6563 1261.6094,485.5469 Q1261.7969,485.4375 1262.0156,485.4375 Q1262.3906,485.4375 1262.625,485.6953 Q1262.8594,485.9531 1262.8594,486.5625 L1262.8594,488.0156 Q1262.8594,488.625 1262.625,488.8906 Q1262.3906,489.1563 1262.0156,489.1563 Q1261.6719,489.1563 1261.4688,488.9531 Q1261.2656,488.7656 1261.1563,488.25 Q1261.1094,487.8906 1260.9219,487.7031 Q1260.5938,487.3281 1259.9844,487.1094 Q1259.375,486.8906 1258.75,486.8906 Q1257.9844,486.8906 1257.3516,487.2188 Q1256.7188,487.5469 1256.2266,488.2969 Q1255.7344,489.0469 1255.7344,490.0781 L1255.7344,491.1719 Q1255.7344,492.4063 1256.625,493.2266 Q1257.5156,494.0469 1259.1094,494.0469 Q1260.0469,494.0469 1260.7031,493.7969 Q1261.0938,493.6406 1261.5156,493.2031 Q1261.7813,492.9375 1261.9297,492.8594 Q1262.0781,492.7813 1262.2813,492.7813 Q1262.6094,492.7813 1262.8672,493.0391 Q1263.125,493.2969 1263.125,493.6406 Q1263.125,493.9844 1262.7813,494.3906 Q1262.2813,494.9688 1261.4844,495.2969 Q1260.4063,495.75 1259.1094,495.75 Q1257.5938,495.75 1256.3906,495.125 Q1255.4063,494.625 1254.7188,493.5547 Q1254.0313,492.4844 1254.0313,491.2031 L1254.0313,490.0469 Q1254.0313,488.7188 1254.6484,487.5703 Q1255.2656,486.4219 1256.3594,485.8047 Q1257.4531,485.1875 1258.6875,485.1875 Q1259.4219,485.1875 1260.0703,485.3516 Q1260.7188,485.5156 1261.2656,485.875 Z "/><text fill="#000000" font-family="sans-serif" font-size="12" lengthAdjust="spacingAndGlyphs" textLength="69" x="1272.5" y="494.9102">dataLabeller</text><line style="stroke: #A80036; stroke-width: 1.5;" x1="1244.5" x2="1343.5" y1="506" y2="506"/><line style="stroke: #A80036; stroke-width: 1.5;" x1="1244.5" x2="1343.5" y1="514" y2="514"/><!--MD5=[9b5be0d2ba172a93ceb37e877e85c634]
class Calculate Features--><rect fill="#FEFECE" filter="url(#f64c5dudpwiqm)" height="48" id="Calculate Features" style="stroke: #A80036; stroke-width: 1.5;" width="136" x="1278" y="702"/><ellipse cx="1293" cy="718" fill="#ADD1B2" rx="11" ry="11" style="stroke: #A80036; stroke-width: 1.0;"/><path d="M1295.7656,713.875 Q1295.9219,713.6563 1296.1094,713.5469 Q1296.2969,713.4375 1296.5156,713.4375 Q1296.8906,713.4375 1297.125,713.6953 Q1297.3594,713.9531 1297.3594,714.5625 L1297.3594,716.0156 Q1297.3594,716.625 1297.125,716.8906 Q1296.8906,717.1563 1296.5156,717.1563 Q1296.1719,717.1563 1295.9688,716.9531 Q1295.7656,716.7656 1295.6563,716.25 Q1295.6094,715.8906 1295.4219,715.7031 Q1295.0938,715.3281 1294.4844,715.1094 Q1293.875,714.8906 1293.25,714.8906 Q1292.4844,714.8906 1291.8516,715.2188 Q1291.2188,715.5469 1290.7266,716.2969 Q1290.2344,717.0469 1290.2344,718.0781 L1290.2344,719.1719 Q1290.2344,720.4063 1291.125,721.2266 Q1292.0156,722.0469 1293.6094,722.0469 Q1294.5469,722.0469 1295.2031,721.7969 Q1295.5938,721.6406 1296.0156,721.2031 Q1296.2813,720.9375 1296.4297,720.8594 Q1296.5781,720.7813 1296.7813,720.7813 Q1297.1094,720.7813 1297.3672,721.0391 Q1297.625,721.2969 1297.625,721.6406 Q1297.625,721.9844 1297.2813,722.3906 Q1296.7813,722.9688 1295.9844,723.2969 Q1294.9063,723.75 1293.6094,723.75 Q1292.0938,723.75 1290.8906,723.125 Q1289.9063,722.625 1289.2188,721.5547 Q1288.5313,720.4844 1288.5313,719.2031 L1288.5313,718.0469 Q1288.5313,716.7188 1289.1484,715.5703 Q1289.7656,714.4219 1290.8594,713.8047 Q1291.9531,713.1875 1293.1875,713.1875 Q1293.9219,713.1875 1294.5703,713.3516 Q1295.2188,713.5156 1295.7656,713.875 Z "/><text fill="#000000" font-family="sans-serif" font-size="12" lengthAdjust="spacingAndGlyphs" textLength="104" x="1307" y="722.9102">Calculate Features</text><line style="stroke: #A80036; stroke-width: 1.5;" x1="1279" x2="1413" y1="734" y2="734"/><line style="stroke: #A80036; stroke-width: 1.5;" x1="1279" x2="1413" y1="742" y2="742"/><!--MD5=[44aeb05795c22bc793789a5dbd18b721]
link DATA: Raw CSV to DATA: Raw MAT--><path d="M127.244,270 C137.225,270 147.207,270 157.188,270 " fill="none" id="DATA: Raw CSV-&gt;DATA: Raw MAT" style="stroke: #A80036; stroke-width: 1.0;"/><polygon fill="#A80036" points="162.407,270,153.407,266,157.407,270,153.407,274,162.407,270" style="stroke: #A80036; stroke-width: 1.0;"/><!--MD5=[217818976c9096757b596230edefca3b]
link DATA: Raw MAT to DATA: Raw clean--><path d="M281.934,270 C315.472,270 349.01,270 382.548,270 " fill="none" id="DATA: Raw MAT-&gt;DATA: Raw clean" style="stroke: #A80036; stroke-width: 1.0;"/><polygon fill="#A80036" points="387.93,270,378.93,266,382.93,270,378.93,274,387.93,270" style="stroke: #A80036; stroke-width: 1.0;"/><!--MD5=[585450ba517bbcd3a8003d1626e552bc]
link DATA: Raw clean to DATA: Transformed data--><path d="M514.041,270 C569.629,270 625.218,270 680.806,270 " fill="none" id="DATA: Raw clean-&gt;DATA: Transformed data" style="stroke: #A80036; stroke-width: 1.0;"/><polygon fill="#A80036" points="685.84,270,676.84,266,680.84,270,676.84,274,685.84,270" style="stroke: #A80036; stroke-width: 1.0;"/><!--MD5=[00c7908add7c13295adf1502e012fe7c]
link DATA: Transformed data to DATA: Processed data--><path d="M852.203,270 C915.196,270 978.19,270 1041.18,270 " fill="none" id="DATA: Transformed data-&gt;DATA: Processed data" style="stroke: #A80036; stroke-width: 1.0;"/><polygon fill="#A80036" points="1046.5,270,1037.5,266,1041.5,270,1037.5,274,1046.5,270" style="stroke: #A80036; stroke-width: 1.0;"/><!--MD5=[65c0587b7b55325ba748ddac1a854786]
link DATA: Raw CSV to data2Mat\n Converter--><path d="M68.5488,294.335 C71.2444,334.949 76.8026,418.692 79.8629,464.801 " fill="none" id="DATA: Raw CSV-&gt;data2Mat\n Converter" style="stroke: #A80036; stroke-width: 1.0;"/><polygon fill="#A80036" points="80.2053,469.96,83.5999,460.7147,79.8739,464.971,75.6175,461.2449,80.2053,469.96" style="stroke: #A80036; stroke-width: 1.0;"/><!--MD5=[c31191fd87be7a29465c8788f610797f]
reverse link DATA: Raw MAT to data2Mat\n Converter--><path d="M199.23,298.11 C186.426,313.928 170.544,334.545 158,354 C133.014,392.752 108.851,440.54 94.7108,469.883 " fill="none" id="DATA: Raw MAT&lt;-data2Mat\n Converter" style="stroke: #A80036; stroke-width: 1.0;"/><polygon fill="#A80036" points="202.415,294.195,193.6322,298.6517,199.2594,298.0734,199.8377,303.7006,202.415,294.195" style="stroke: #A80036; stroke-width: 1.0;"/><!--MD5=[057f60a34318c1d50f77048176974738]
reverse link generate\n Masterlist 1 to DATA: Raw MAT--><path d="M256.869,183.643 C248.825,203.335 238.714,228.085 231.455,245.856 " fill="none" id="generate\n Masterlist 1&lt;-DATA: Raw MAT" style="stroke: #A80036; stroke-width: 1.0;"/><polygon fill="#A80036" points="258.867,178.752,251.7597,185.5701,256.9756,183.3805,259.1653,188.5963,258.867,178.752" style="stroke: #A80036; stroke-width: 1.0;"/><!--MD5=[b7fa1eeb0448d63403d3100376e4aafb]
link DATA: Raw MAT to dataCleaner--><path d="M222.413,294.335 C223.153,336.143 224.702,423.655 225.5,468.77 " fill="none" id="DATA: Raw MAT-&gt;dataCleaner" style="stroke: #A80036; stroke-width: 1.0;"/><polygon fill="#A80036" points="225.589,473.792,229.4289,464.7225,225.5004,468.7928,221.4302,464.8643,225.589,473.792" style="stroke: #A80036; stroke-width: 1.0;"/><!--MD5=[3d16b72f8416b20028a291e09b3eae4d]
reverse link DATA: Raw clean to dataCleaner--><path d="M383.17,295.388 C352.904,308.942 318.604,328.329 294,354 C260.617,388.831 241.047,443.112 232.04,473.805 " fill="none" id="DATA: Raw clean&lt;-dataCleaner" style="stroke: #A80036; stroke-width: 1.0;"/><polygon fill="#A80036" points="387.991,293.263,378.1422,293.2344,383.4161,295.2804,381.3701,300.5543,387.991,293.263" style="stroke: #A80036; stroke-width: 1.0;"/><!--MD5=[cc6f282277c174aee61a608826a7b625]
link generate\n Masterlist 1 to dataCleaner--><path d="M280.713,178.703 C287.452,197.32 295.513,222.749 299,246 C311.495,329.308 267.489,423.771 242.35,469.411 " fill="none" id="generate\n Masterlist 1-&gt;dataCleaner" style="stroke: #A80036; stroke-width: 1.0;"/><polygon fill="#A80036" points="239.83,473.938,247.7035,468.0212,242.2627,469.5697,240.7142,464.1289,239.83,473.938" style="stroke: #A80036; stroke-width: 1.0;"/><!--MD5=[a62999a227df72107ba01a5b0541a614]
link DATA: Raw clean to Pre-process Data--><path d="M463.906,294.335 C487.124,336.313 535.826,424.366 560.689,469.317 " fill="none" id="DATA: Raw clean-&gt;Pre-process Data" style="stroke: #A80036; stroke-width: 1.0;"/><polygon fill="#A80036" points="563.164,473.792,562.3086,463.9804,560.7442,469.4166,555.3079,467.8521,563.164,473.792" style="stroke: #A80036; stroke-width: 1.0;"/><!--MD5=[1ae0a98ca705cdae0b41b69c95f3440c]
reverse link DATA: Transformed data to Pre-process Data--><path d="M726.036,297.055 C703.93,311.876 677.59,331.875 658,354 C624.99,391.282 598.971,443.947 585.689,473.859 " fill="none" id="DATA: Transformed data&lt;-Pre-process Data" style="stroke: #A80036; stroke-width: 1.0;"/><polygon fill="#A80036" points="730.397,294.161,720.6859,295.8028,726.2304,296.9249,725.1082,302.4694,730.397,294.161" style="stroke: #A80036; stroke-width: 1.0;"/><!--MD5=[1dea2596efeb0164c1ccffc91896220f]
reverse link generate\n Masterlist 2 to DATA: Raw clean--><path d="M451,183.893 C451,203.545 451,228.16 451,245.856 " fill="none" id="generate\n Masterlist 2&lt;-DATA: Raw clean" style="stroke: #A80036; stroke-width: 1.0;"/><polygon fill="#A80036" points="451,178.752,447,187.752,451,183.752,455,187.752,451,178.752" style="stroke: #A80036; stroke-width: 1.0;"/><!--MD5=[669bc3a632f5289b92f1685c00ebeab9]
link generate\n Masterlist 2 to Pre-process Data--><path d="M481.016,178.866 C498.34,196.374 519.007,220.522 531,246 C566.383,321.169 574.072,421.012 575.656,468.96 " fill="none" id="generate\n Masterlist 2-&gt;Pre-process Data" style="stroke: #A80036; stroke-width: 1.0;"/><polygon fill="#A80036" points="575.806,473.991,579.5342,464.875,575.656,468.9933,571.5378,465.1151,575.806,473.991" style="stroke: #A80036; stroke-width: 1.0;"/><!--MD5=[37ecca3a702bbfe8f9c0322100bfa5f8]
link DATA: Transformed data to Process Data--><path d="M807.967,294.002 C830.803,308.929 858.997,330.029 879,354 C908.414,389.248 929.843,438.537 941.348,469.078 " fill="none" id="DATA: Transformed data-&gt;Process Data" style="stroke: #A80036; stroke-width: 1.0;"/><polygon fill="#A80036" points="943.109,473.813,943.7205,463.9831,941.3659,469.1267,936.2224,466.7721,943.109,473.813" style="stroke: #A80036; stroke-width: 1.0;"/><!--MD5=[800c1d8ee409cfa098fff82e6fa70154]
reverse link DATA: Processed data to Process Data--><path d="M1083.86,297.422 C1063.49,312.275 1039.43,332.189 1022,354 C991.888,391.674 969.909,444.198 958.919,473.98 " fill="none" id="DATA: Processed data&lt;-Process Data" style="stroke: #A80036; stroke-width: 1.0;"/><polygon fill="#A80036" points="1088.15,294.331,1078.5117,296.3568,1084.0963,297.2581,1083.1951,302.8427,1088.15,294.331" style="stroke: #A80036; stroke-width: 1.0;"/><!--MD5=[00dee2a7dacc24297360579955d1f181]
reverse link generate\n Masterlist 3 to DATA: Transformed data--><path d="M769,183.893 C769,203.545 769,228.16 769,245.856 " fill="none" id="generate\n Masterlist 3&lt;-DATA: Transformed data" style="stroke: #A80036; stroke-width: 1.0;"/><polygon fill="#A80036" points="769,178.752,765,187.752,769,183.752,773,187.752,769,178.752" style="stroke: #A80036; stroke-width: 1.0;"/><!--MD5=[a7e7f5b282fe50147ce848feb54a7d54]
link IDG Removal Dates masterlist to Generate Accounting\n Table for the different\n cases of removal--><path d="M610,55.214 C610,70.742 610,91.575 610,109.709 " fill="none" id="IDG Removal Dates masterlist-&gt;Generate Accounting\n Table for the different\n cases of removal" style="stroke: #A80036; stroke-width: 1.0;"/><polygon fill="#A80036" points="610,114.745,614,105.745,610,109.745,606,105.745,610,114.745" style="stroke: #A80036; stroke-width: 1.0;"/><!--MD5=[ed2860152a920b9db937feb536179656]
link generate\n Masterlist 2 to Generate Accounting\n Table for the different\n cases of removal--><path d="M500.066,150.5 C509.94,150.5 519.813,150.5 529.687,150.5 " fill="none" id="generate\n Masterlist 2-&gt;Generate Accounting\n Table for the different\n cases of removal" style="stroke: #A80036; stroke-width: 1.0;"/><polygon fill="#A80036" points="534.85,150.5,525.85,146.5,529.85,150.5,525.85,154.5,534.85,150.5" style="stroke: #A80036; stroke-width: 1.0;"/><!--MD5=[34b99492edd357708509f1f728f5f332]
link generate\n Masterlist 3 to Check for usable transformed data--><path d="M818.131,150.5 C827.997,150.5 837.863,150.5 847.729,150.5 " fill="none" id="generate\n Masterlist 3-&gt;Check for usable transformed data" style="stroke: #A80036; stroke-width: 1.0;"/><polygon fill="#A80036" points="852.889,150.5,843.889,146.5,847.889,150.5,843.889,154.5,852.889,150.5" style="stroke: #A80036; stroke-width: 1.0;"/><!--MD5=[dcd7d84a7061bd33e14bfec53b858ab9]
link Generate Accounting\n Table for the different\n cases of removal to Check for usable transformed data--><path d="M656.751,114.962 C675.272,102.98 697.401,91.105 719.5,85 C761.483,73.402 774.903,75.911 817.5,85 C852.933,92.56 890.171,109.342 918.237,124.025 " fill="none" id="Generate Accounting\n Table for the different\n cases of removal-&gt;Check for usable transformed data" style="stroke: #A80036; stroke-width: 1.0;"/><polygon fill="#A80036" points="922.661,126.362,916.5716,118.6213,918.24,124.0265,912.8348,125.6949,922.661,126.362" style="stroke: #A80036; stroke-width: 1.0;"/><!--MD5=[8feed02f1c71d9ebd71a5da4950e3824]
link Check for usable transformed data to Process Data--><path d="M963.127,174.706 C960.823,235.925 954.587,401.671 952.072,468.498 " fill="none" id="Check for usable transformed data-&gt;Process Data" style="stroke: #A80036; stroke-width: 1.0;"/><polygon fill="#A80036" points="951.869,473.895,956.2056,465.0523,952.0576,468.8986,948.2113,464.7505,951.869,473.895" style="stroke: #A80036; stroke-width: 1.0;"/><!--MD5=[53ee54506de976d7a48e85ce6c96fd4e]
link DATA: Processed data to dataLabeller--><path d="M1159.99,294.218 C1181.25,309.297 1207.53,330.48 1226,354 C1253.93,389.56 1274.04,438.458 1284.85,468.875 " fill="none" id="DATA: Processed data-&gt;dataLabeller" style="stroke: #A80036; stroke-width: 1.0;"/><polygon fill="#A80036" points="1286.63,473.962,1287.427,464.1454,1284.9757,469.2436,1279.8775,466.7923,1286.63,473.962" style="stroke: #A80036; stroke-width: 1.0;"/><!--MD5=[4f9f3cbb5368ff84ba1b5c96d23a8e11]
link dataLabeller to Calculate Features--><path d="M1299.37,522.335 C1308.99,564.143 1329.12,651.6555 1339.5,696.7701 " fill="none" id="dataLabeller-&gt;Calculate Features" style="stroke: #A80036; stroke-width: 1.0;"/><polygon fill="#A80036" points="1340.66,701.7922,1342.5395,692.1244,1339.5386,696.9196,1334.7434,693.9186,1340.66,701.7922" style="stroke: #A80036; stroke-width: 1.0;"/><!--MD5=[8affa805d99bc95251ecb6fe65e683b2]
reverse link DATA: Processed data to Calculate Features--><path d="M1206.74,276.258 C1260.56,284.481 1327.02,304.751 1362,354 C1439.47,463.061 1380.84,639.066 1355.85,701.8406 " fill="none" id="DATA: Processed data&lt;-Calculate Features" style="stroke: #A80036; stroke-width: 1.0;"/><polygon fill="#A80036" points="1201.57,275.499,1209.8912,280.7676,1206.5166,276.2275,1211.0568,272.853,1201.57,275.499" style="stroke: #A80036; stroke-width: 1.0;"/><!--MD5=[b3f095d7a0460ac0f62a35a4a6f9ac7d]
@startuml dataPipeline

"DATA: Raw CSV" -right-> "DATA: Raw MAT"
"DATA: Raw MAT" -right-> "DATA: Raw clean"
note bottom
- All flights except those
  without gen params
  
- Only selected params 
  are cleaned. The rest
  remain untouched.
  
- Data where
  genFreq or genvolt = 0
  will be emptied but
  still exist as a file.

- Each mat file contains
  2 tables. 1 for each gen

- Calibrated time column

end note
"DATA: Raw clean" -right-> "DATA: Transformed data"
note bottom
- Only flights from aircrafts
  stated in IDG removal
  dates table

- Doesn't include flights with 
  flightphase
  
- Columns not selected will 
  be removed
  
- Contains both original 
  & normalised features
  
- 1 matfile -> 1 flight

end note
"DATA: Transformed data" -right-> "DATA: Processed data"
note bottom
- All flights stated in CAT
  
- Can contain flight phase

- Only certain phases
  each flight are included

- 1 matfile -> 1 data 
  ensemble
  
- Features will be placed
  in another column
end note
"DATA: Raw CSV" -down-> "data2Mat\n Converter"
"data2Mat\n Converter" -up-> "DATA: Raw MAT"


"DATA: Raw MAT" -up-> "generate\n Masterlist 1"
"DATA: Raw MAT" -down-> "dataCleaner"
"dataCleaner" -up-> "DATA: Raw clean"
"generate\n Masterlist 1" -down-> "dataCleaner"

"DATA: Raw clean" -down-> "Pre-process Data"
"Pre-process Data" -up-> "DATA: Transformed data"
"DATA: Raw clean" -up-> "generate\n Masterlist 2"

"generate\n Masterlist 2" -down-> "Pre-process Data"
"DATA: Transformed data" -down-> "Process Data"
"Process Data" -up-> "DATA: Processed data"

"DATA: Transformed data" -up-> "generate\n Masterlist 3"
"IDG Removal Dates masterlist" -down-> "Generate Accounting\n Table for the different\n cases of removal"
"generate\n Masterlist 2" -right-> "Generate Accounting\n Table for the different\n cases of removal"
"generate\n Masterlist 3" -right-> "Check for usable transformed data"
"Generate Accounting\n Table for the different\n cases of removal" -right-> "Check for usable transformed data"


"Check for usable transformed data" -down-> "Process Data"
"DATA: Processed data" -down->  "dataLabeller"
"dataLabeller" -down-> "Calculate Features"
"Calculate Features" -up-> "DATA: Processed data"

@enduml

PlantUML version 1.2020.15(Sun Jun 28 19:39:45 SGT 2020)
(GPL source distribution)
Java Runtime: Java(TM) SE Runtime Environment
JVM: Java HotSpot(TM) 64-Bit Server VM
Default Encoding: Cp1252
Language: en
Country: SG
--></g></svg>